<svg width="68" height="66" viewBox="0 0 68 66" fill="none" xmlns="http://www.w3.org/2000/svg">
<rect width="68" height="66" rx="33" fill="url(#paint0_linear_6_128)"/>
<path d="M39.6233 34.5771L36.4407 37.7705C35.1502 39.0656 32.8794 39.0935 31.5609 37.7705L28.3781 34.5771L16.9473 46.0451C17.3728 46.2419 17.8419 46.3593 18.3406 46.3593H49.661C50.1597 46.3593 50.6287 46.242 51.054 46.0452L39.6233 34.5771Z" fill="white"/>
<path d="M49.6589 19.6406H18.3385C17.8398 19.6406 17.3707 19.758 16.9453 19.9548L29.16 32.21C29.1608 32.2108 29.1618 32.211 29.1626 32.2118C29.1634 32.2126 29.1636 32.2137 29.1636 32.2137L33.1352 36.1985C33.5571 36.6204 34.4405 36.6204 34.8623 36.1985L38.8332 32.2144C38.8332 32.2144 38.8341 32.2126 38.8349 32.2118C38.8349 32.2118 38.8367 32.2108 38.8375 32.21L51.0519 19.9547C50.6266 19.7579 50.1576 19.6406 49.6589 19.6406Z" fill="white"/>
<path d="M15.3552 21.5118C15.1351 21.957 15 22.4512 15 22.9805V43.0195C15 43.5489 15.1349 44.043 15.3551 44.4882L26.8058 33.0004L15.3552 21.5118Z" fill="white"/>
<path d="M52.6439 21.5117L41.1934 33.0004L52.6439 44.4884C52.864 44.0432 52.9991 43.549 52.9991 43.0196V22.9805C52.9991 22.451 52.864 21.9569 52.6439 21.5117Z" fill="white"/>
<defs>
<linearGradient id="paint0_linear_6_128" x1="34" y1="0" x2="34" y2="66" gradientUnits="userSpaceOnUse">
<stop stop-color="#74DB8A"/>
<stop offset="1" stop-color="#4DB362"/>
</linearGradient>
</defs>
</svg>
