<svg width="241" height="39" viewBox="0 0 241 39" fill="none" xmlns="http://www.w3.org/2000/svg">
<path d="M0.294922 0.133789H15.5681C21.3087 0.133789 33.4198 0.71901 33.4198 9.92149C33.4198 13.1657 31.8912 16.1427 27.6792 17.6312V17.7372C33.2098 19.811 34.4739 23.4284 34.4739 26.8846C34.4739 37.0413 23.7318 38.64 16.303 38.64H0.294922V0.133789ZM16.5718 15.7695C18.5749 15.7695 19.5198 14.7051 19.5198 13.3777C19.5198 12.0504 18.5203 10.9859 16.5718 10.9859H15.9923V15.7738H16.5718V15.7695ZM16.6768 28.3222C19.1502 28.3222 20.3093 26.9906 20.3093 25.3452C20.3093 23.6998 19.0998 22.3682 16.6768 22.3682H15.9923V28.3265H16.6768V28.3222Z" fill="#42DD80"/>
<path d="M42.3683 33.0297C38.6644 29.2893 36.8125 24.7899 36.8125 19.527C36.8125 14.2642 38.6644 9.7351 42.3683 5.99898C46.0722 2.25861 50.5277 0.388428 55.7392 0.388428C60.9507 0.388428 65.423 2.25861 69.1101 5.99898C72.814 9.73934 74.6659 14.2473 74.6659 19.527C74.6659 24.8068 72.814 29.2893 69.1101 33.0297C65.423 36.77 60.9675 38.6402 55.7392 38.6402C50.5109 38.6402 46.0722 36.77 42.3683 33.0297ZM43.3216 6.98284C39.8907 10.4476 38.1773 14.6247 38.1773 19.527C38.1773 24.4294 39.8907 28.5811 43.3216 32.0416C46.7693 35.5233 50.9057 37.262 55.7434 37.262C60.5811 37.262 64.7343 35.5233 68.1652 32.0416C71.5919 28.5811 73.3095 24.4082 73.3095 19.527C73.3095 14.6459 71.5961 10.4476 68.1652 6.98284C64.7343 3.52237 60.5979 1.78789 55.7434 1.78789C50.8889 1.78789 46.7693 3.51813 43.3216 6.98284ZM44.2958 31.0832C41.1253 27.8814 39.5379 24.0308 39.5379 19.527C39.5379 15.0233 41.1253 11.1558 44.2958 7.97094C47.4664 4.76915 51.2836 3.16614 55.7392 3.16614C60.1948 3.16614 64.0288 4.76915 67.1826 7.97094C70.3531 11.1558 71.9405 15.0064 71.9405 19.527C71.9405 24.0477 70.3531 27.8814 67.1826 31.0832C64.0288 34.268 60.2158 35.8625 55.7392 35.8625C51.2626 35.8625 47.4664 34.268 44.2958 31.0832ZM45.2743 8.9336C42.3767 11.8597 40.9279 15.3923 40.9279 19.527C40.9279 23.6618 42.3767 27.1689 45.2743 30.0951C48.1719 33.0212 51.6616 34.4843 55.7392 34.4843C59.8168 34.4843 63.3317 33.0212 66.2293 30.0951C69.1269 27.1689 70.5757 23.6448 70.5757 19.527C70.5757 15.4093 69.1269 11.8597 66.2293 8.9336C63.3317 6.00746 59.8336 4.54439 55.7392 4.54439C51.6448 4.54439 48.1719 6.00746 45.2743 8.9336ZM46.2276 29.1112C43.6029 26.4607 42.2927 23.2674 42.2927 19.527C42.2927 15.7867 43.6029 12.5679 46.2276 9.91745C48.869 7.25 52.0395 5.9184 55.7434 5.9184C59.4473 5.9184 62.6346 7.25 65.2593 9.91745C67.8839 12.5679 69.1941 15.7697 69.1941 19.527C69.1941 23.2844 67.8839 26.4607 65.2593 29.1112C62.6346 31.7787 59.4641 33.1102 55.7434 33.1102C52.0227 33.1102 48.869 31.7787 46.2276 29.1112ZM47.2018 10.8801C44.8376 13.2677 43.6533 16.1514 43.6533 19.527C43.6533 22.9027 44.8376 25.761 47.2018 28.1486C49.5661 30.5361 52.4133 31.732 55.7392 31.732C59.0651 31.732 61.9291 30.5361 64.2766 28.1486C66.6409 25.761 67.8251 22.8857 67.8251 19.527C67.8251 16.1684 66.6409 13.2677 64.2766 10.8801C61.9291 8.50952 59.0819 7.3221 55.7392 7.3221C52.3965 7.3221 49.5661 8.50952 47.2018 10.8801ZM48.1803 27.1604C46.0722 25.0485 45.0181 22.5041 45.0181 19.527C45.0181 16.55 46.0722 13.9801 48.1803 11.8682C50.2716 9.7563 52.7912 8.70035 55.7392 8.70035C58.6872 8.70035 61.232 9.7563 63.3233 11.8682C65.4146 13.9801 66.4603 16.5331 66.4603 19.527C66.4603 22.521 65.4146 25.0485 63.3233 27.1604C61.232 29.2723 58.704 30.3283 55.7392 30.3283C52.7744 30.3283 50.2716 29.2723 48.1803 27.1604ZM49.1335 12.8521C47.2984 14.6883 46.3829 16.9105 46.3829 19.527C46.3829 22.1436 47.2984 24.3488 49.1335 26.202C50.9687 28.0383 53.1692 28.9543 55.7434 28.9543C58.3176 28.9543 60.5349 28.0383 62.3533 26.202C64.1884 24.3488 65.1039 22.1266 65.1039 19.527C65.1039 16.9275 64.1884 14.6883 62.3533 12.8521C60.5349 10.9989 58.3344 10.0744 55.7434 10.0744C53.1524 10.0744 50.9687 10.9989 49.1335 12.8521Z" fill="#42DD80"/>
<path d="M78.2693 0.133884H92.5431L103.76 16.5669L103.865 16.5118V0.129639H117.979V38.6359H103.705L92.4885 22.2029L92.3835 22.258V38.6401H78.2693V0.133884Z" fill="#42DD80"/>
<path d="M122.611 0.133789H137.885C143.625 0.133789 155.736 0.71901 155.736 9.92149C155.736 13.1657 154.208 16.1427 149.996 17.6312V17.7372C155.526 19.811 156.79 23.4284 156.79 26.8846C156.79 37.0413 146.048 38.64 138.619 38.64H122.611V0.133789ZM138.888 15.7695C140.891 15.7695 141.836 14.7051 141.836 13.3777C141.836 12.0504 140.837 10.9859 138.888 10.9859H138.309V15.7738H138.888V15.7695ZM138.993 28.3222C141.467 28.3222 142.626 26.9906 142.626 25.3452C142.626 23.6998 141.416 22.3682 138.993 22.3682H138.309V28.3265H138.993V28.3222Z" fill="#42DD80"/>
<path d="M164.685 33.0297C160.981 29.2893 159.129 24.7899 159.129 19.527C159.129 14.2642 160.981 9.7351 164.685 5.99898C168.389 2.25861 172.844 0.388428 178.056 0.388428C183.267 0.388428 187.739 2.25861 191.427 5.99898C195.13 9.73934 196.982 14.2473 196.982 19.527C196.982 24.8068 195.13 29.2893 191.427 33.0297C187.739 36.77 183.284 38.6402 178.056 38.6402C172.827 38.6402 168.389 36.77 164.685 33.0297ZM165.638 6.98284C162.207 10.4476 160.494 14.6247 160.494 19.527C160.494 24.4294 162.207 28.5811 165.638 32.0416C169.086 35.5233 173.222 37.262 178.06 37.262C182.898 37.262 187.051 35.5233 190.482 32.0416C193.908 28.5811 195.626 24.4082 195.626 19.527C195.626 14.6459 193.913 10.4476 190.482 6.98284C187.051 3.52237 182.914 1.78789 178.06 1.78789C173.205 1.78789 169.086 3.51813 165.638 6.98284ZM166.612 31.0832C163.442 27.8814 161.854 24.0308 161.854 19.527C161.854 15.0233 163.442 11.1558 166.612 7.97094C169.783 4.76915 173.6 3.16614 178.056 3.16614C182.511 3.16614 186.345 4.76915 189.499 7.97094C192.67 11.1558 194.257 15.0064 194.257 19.527C194.257 24.0477 192.67 27.8814 189.499 31.0832C186.345 34.268 182.532 35.8625 178.056 35.8625C173.579 35.8625 169.783 34.268 166.612 31.0832ZM167.591 8.9336C164.693 11.8597 163.244 15.3923 163.244 19.527C163.244 23.6618 164.693 27.1689 167.591 30.0951C170.488 33.0212 173.978 34.4843 178.056 34.4843C182.133 34.4843 185.648 33.0212 188.546 30.0951C191.443 27.1689 192.892 23.6448 192.892 19.527C192.892 15.4093 191.443 11.8597 188.546 8.9336C185.648 6.00746 182.15 4.54439 178.056 4.54439C173.961 4.54439 170.488 6.00746 167.591 8.9336ZM168.544 29.1112C165.919 26.4607 164.609 23.2674 164.609 19.527C164.609 15.7867 165.919 12.5679 168.544 9.91745C171.185 7.25 174.356 5.9184 178.06 5.9184C181.764 5.9184 184.951 7.25 187.576 9.91745C190.2 12.5679 191.511 15.7697 191.511 19.527C191.511 23.2844 190.2 26.4607 187.576 29.1112C184.951 31.7787 181.78 33.1102 178.06 33.1102C174.339 33.1102 171.185 31.7787 168.544 29.1112ZM169.518 10.8801C167.154 13.2677 165.97 16.1514 165.97 19.527C165.97 22.9027 167.154 25.761 169.518 28.1486C171.882 30.5361 174.73 31.732 178.056 31.732C181.382 31.732 184.246 30.5361 186.593 28.1486C188.957 25.761 190.141 22.8857 190.141 19.527C190.141 16.1684 188.957 13.2677 186.593 10.8801C184.246 8.50952 181.398 7.3221 178.056 7.3221C174.713 7.3221 171.882 8.50952 169.518 10.8801ZM170.497 27.1604C168.389 25.0485 167.335 22.5041 167.335 19.527C167.335 16.55 168.389 13.9801 170.497 11.8682C172.588 9.7563 175.108 8.70035 178.056 8.70035C181.004 8.70035 183.548 9.7563 185.64 11.8682C187.731 13.9801 188.777 16.5331 188.777 19.527C188.777 22.521 187.731 25.0485 185.64 27.1604C183.548 29.2723 181.02 30.3283 178.056 30.3283C175.091 30.3283 172.588 29.2723 170.497 27.1604ZM171.45 12.8521C169.615 14.6883 168.699 16.9105 168.699 19.527C168.699 22.1436 169.615 24.3488 171.45 26.202C173.285 28.0383 175.486 28.9543 178.06 28.9543C180.634 28.9543 182.851 28.0383 184.67 26.202C186.505 24.3488 187.42 22.1266 187.42 19.527C187.42 16.9275 186.505 14.6883 184.67 12.8521C182.851 10.9989 180.651 10.0744 178.06 10.0744C175.469 10.0744 173.285 10.9989 171.45 12.8521Z" fill="#42DD80"/>
<path d="M200.586 0.133884H214.86L226.076 16.5669L226.181 16.5118V0.129639H240.295V38.6359H226.022L214.805 22.2029L214.7 22.258V38.6401H200.586V0.133884Z" fill="#42DD80"/>
</svg>
