<svg width="38" height="39" viewBox="0 0 38 39" fill="none" xmlns="http://www.w3.org/2000/svg">
<path d="M5.57732 32.9264C1.85911 29.2106 0 24.7408 0 19.5126C0 14.2845 1.85911 9.78515 5.57732 6.07362C9.29554 2.35788 13.7684 0.5 19 0.5C24.2316 0.5 28.7213 2.35788 32.4227 6.07362C36.1409 9.78936 38 14.2676 38 19.5126C38 24.7576 36.1409 29.2106 32.4227 32.9264C28.7213 36.6421 24.2485 38.5 19 38.5C13.7515 38.5 9.29554 36.6421 5.57732 32.9264ZM6.53428 7.051C3.09008 10.4929 1.37009 14.6426 1.37009 19.5126C1.37009 24.3827 3.09008 28.5071 6.53428 31.9448C9.99534 35.4035 14.1478 37.1308 19.0042 37.1308C23.8607 37.1308 28.03 35.4035 31.4742 31.9448C34.9141 28.5071 36.6383 24.3616 36.6383 19.5126C36.6383 14.6636 34.9184 10.4929 31.4742 7.051C28.03 3.61331 23.8775 1.89025 19.0042 1.89025C14.1309 1.89025 9.99534 3.6091 6.53428 7.051ZM7.51231 30.9927C4.32949 27.812 2.73597 23.9867 2.73597 19.5126C2.73597 15.0386 4.32949 11.1965 7.51231 8.0326C10.6951 4.85189 14.5272 3.25943 19 3.25943C23.4728 3.25943 27.3217 4.85189 30.4877 8.0326C33.6705 11.1965 35.264 15.0217 35.264 19.5126C35.264 24.0035 33.6705 27.812 30.4877 30.9927C27.3217 34.1565 23.4939 35.7406 19 35.7406C14.5061 35.7406 10.6951 34.1565 7.51231 30.9927ZM8.49457 8.98892C5.58576 11.8958 4.13135 15.4051 4.13135 19.5126C4.13135 23.6202 5.58576 27.1042 8.49457 30.0111C11.4034 32.918 14.9066 34.3714 19 34.3714C23.0934 34.3714 26.6219 32.918 29.5307 30.0111C32.4395 27.1042 33.8939 23.6033 33.8939 19.5126C33.8939 15.422 32.4395 11.8958 29.5307 8.98892C26.6219 6.08205 23.1103 4.62861 19 4.62861C14.8897 4.62861 11.4034 6.08205 8.49457 8.98892ZM9.45152 29.0337C6.81673 26.4007 5.50144 23.2284 5.50144 19.5126C5.50144 15.7969 6.81673 12.5993 9.45152 9.9663C12.1032 7.31641 15.286 5.99357 19.0042 5.99357C22.7224 5.99357 25.9221 7.31641 28.5569 9.9663C31.1917 12.5993 32.507 15.78 32.507 19.5126C32.507 23.2452 31.1917 26.4007 28.5569 29.0337C25.9221 31.6836 22.7393 33.0064 19.0042 33.0064C15.2691 33.0064 12.1032 31.6836 9.45152 29.0337ZM10.4296 10.9226C8.05614 13.2945 6.86732 16.1592 6.86732 19.5126C6.86732 22.8661 8.05614 25.7055 10.4296 28.0774C12.803 30.4492 15.6612 31.6372 19 31.6372C22.3388 31.6372 25.2139 30.4492 27.5704 28.0774C29.9439 25.7055 31.1327 22.8492 31.1327 19.5126C31.1327 16.1761 29.9439 13.2945 27.5704 10.9226C25.2139 8.56764 22.3557 7.38803 19 7.38803C15.6443 7.38803 12.803 8.56764 10.4296 10.9226ZM11.4118 27.0958C9.29554 24.9978 8.23741 22.4701 8.23741 19.5126C8.23741 16.5552 9.29554 14.0022 11.4118 11.9042C13.5112 9.80621 16.0406 8.75721 19 8.75721C21.9594 8.75721 24.5141 9.80621 26.6135 11.9042C28.7129 14.0022 29.7626 16.5384 29.7626 19.5126C29.7626 22.4869 28.7129 24.9978 26.6135 27.0958C24.5141 29.1938 21.9763 30.2428 19 30.2428C16.0237 30.2428 13.5112 29.1938 11.4118 27.0958ZM12.3688 12.8816C10.5265 14.7058 9.6075 16.9133 9.6075 19.5126C9.6075 22.112 10.5265 24.3027 12.3688 26.1437C14.211 27.9678 16.42 28.8778 19.0042 28.8778C21.5884 28.8778 23.8143 27.9678 25.6397 26.1437C27.4819 24.3027 28.4009 22.0951 28.4009 19.5126C28.4009 16.9302 27.4819 14.7058 25.6397 12.8816C23.8143 11.0406 21.6053 10.1222 19.0042 10.1222C16.4032 10.1222 14.211 11.0406 12.3688 12.8816Z" fill="white"/>
</svg>
