<svg width="90" height="90" viewBox="0 0 90 90" fill="none" xmlns="http://www.w3.org/2000/svg">
<g clip-path="url(#clip0_5313_223)">
<g clip-path="url(#clip1_5313_223)">
<path d="M70.6792 46.9128L53.09 20.103C51.3593 17.4619 47.8028 16.7233 45.1637 18.4569C44.1727 19.107 43.4506 20.014 43.0254 21.0318L42.6905 20.5214C40.9599 17.8803 37.4034 17.1417 34.7642 18.8753C33.7702 19.5274 33.0452 20.4364 32.6218 21.4571C30.8412 19.0068 27.4152 18.3597 24.8542 20.0399C22.2932 21.7202 21.5211 25.1151 23.0594 27.7265C21.9234 27.7097 20.81 28.0303 19.8399 28.6667C18.5599 29.5044 17.6821 30.7891 17.3711 32.2868C17.06 33.7846 17.3532 35.315 18.1914 36.5926L32.9627 59.1072L22.7067 58.4623C19.2126 58.242 16.0392 60.6613 15.3268 64.0918C14.9023 66.1358 16.2202 68.1446 18.2642 68.5691L50.219 75.2053C53.8498 75.9593 57.5571 75.252 60.6583 73.2173L65.9355 69.7551C69.6187 67.3386 72.1417 63.6319 73.0379 59.3165C73.9341 55.0012 73.0957 50.5962 70.6792 46.9128ZM64.553 67.6478L59.2758 71.11C56.7387 72.7745 53.7056 73.3512 50.7348 72.7342L18.7799 66.098C18.0978 65.9563 17.6591 65.2876 17.8008 64.6055C18.2591 62.3983 20.3023 60.8401 22.5519 60.9824L35.3271 61.787C35.8031 61.8162 36.2554 61.575 36.4961 61.161C36.7368 60.7469 36.7222 60.2334 36.4599 59.8334L20.3041 35.2084C19.3366 33.7339 19.7498 31.7443 21.2244 30.7769C21.9616 30.2932 22.826 30.153 23.6294 30.3198C24.4326 30.4866 25.1697 30.9593 25.6563 31.7076L37.8955 50.3628C38.2774 50.9448 39.0609 51.1075 39.643 50.7257C39.933 50.5332 40.1198 50.2421 40.1856 49.9257C40.2513 49.6093 40.1983 49.2684 40.0064 48.9758L25.3193 26.5895C24.3519 25.1149 24.765 23.1254 26.2396 22.1579C27.7142 21.1905 29.7037 21.6037 30.6711 23.0783L45.3582 45.4646C45.7401 46.0466 46.5236 46.2093 47.1057 45.8275C47.3957 45.635 47.5826 45.3439 47.6483 45.0275C47.714 44.7111 47.661 44.3702 47.4691 44.0776L35.2298 25.4226C34.2624 23.9481 34.6756 21.9585 36.1501 20.9911C37.5823 20.0535 39.6436 20.4816 40.5817 21.9114L52.8209 40.5666C53.2028 41.1487 53.9863 41.3114 54.5683 40.9295C54.8583 40.737 55.0452 40.4459 55.1109 40.1295C55.1766 39.8131 55.1237 39.4722 54.9317 39.1797L45.6298 25.0017C44.6624 23.5271 45.0756 21.5375 46.5501 20.5701C48.0247 19.6027 50.0143 20.0159 50.9817 21.4904L68.571 48.3003C70.6173 51.4194 71.327 55.153 70.5683 58.8061C69.8097 62.4591 67.6721 65.6013 64.553 67.6478Z" fill="#F7F1EC"/>
</g>
<path d="M81.8018 19.5805C76.5435 17.8753 64.859 15.813 60.188 21.2051" stroke="#F7F1EC" stroke-width="2" stroke-linecap="round"/>
</g>
<defs>
<clipPath id="clip0_5313_223">
<rect width="90" height="90" fill="white"/>
</clipPath>
<clipPath id="clip1_5313_223">
<rect width="60" height="60" fill="white" transform="translate(22 10) rotate(11.7321)"/>
</clipPath>
</defs>
</svg>
